<?xml version="1.0" standalone="no"?>
<!DOCTYPE svg PUBLIC "-//W3C//DTD SVG 20010904//EN"
 "http://www.w3.org/TR/2001/REC-SVG-20010904/DTD/svg10.dtd">
<svg version="1.0" xmlns="http://www.w3.org/2000/svg"
 width="368.000000pt" height="78.000000pt" viewBox="0 0 368.000000 78.000000"
 preserveAspectRatio="xMidYMid meet">

<g transform="translate(0.000000,78.000000) scale(0.100000,-0.100000)"
fill="#000000" stroke="none">
<path d="M3168 751 c-74 -24 -116 -51 -168 -107 -75 -82 -114 -202 -101 -309
5 -38 11 -51 25 -53 17 -4 18 1 11 56 -12 108 39 241 117 308 17 14 54 37 82
52 45 24 62 27 151 27 86 0 107 -4 150 -24 42 -20 46 -25 28 -28 -15 -3 -23
-12 -23 -24 0 -16 7 -19 55 -19 40 0 57 4 61 15 9 24 -21 100 -41 104 -14 2
-17 -2 -12 -18 3 -12 4 -21 2 -21 -1 0 -29 12 -61 27 -78 36 -193 42 -276 14z"/>
<path d="M133 719 c-47 -14 -98 -69 -112 -122 -18 -64 -11 -182 15 -232 31
-61 89 -88 179 -82 39 3 82 10 98 16 26 10 27 12 27 91 0 113 -5 120 -86 120
-62 0 -65 -1 -62 -22 2 -19 10 -24 46 -26 l42 -3 0 -58 c0 -66 -6 -71 -86 -71
-80 0 -124 62 -124 175 0 81 19 128 62 155 38 24 96 22 149 -6 33 -16 48 -9
49 24 0 32 -136 60 -197 41z"/>
<path d="M451 517 c-39 -116 -71 -218 -71 -225 0 -6 11 -12 24 -12 21 0 27 9
43 57 l19 56 85 1 86 2 19 -56 c16 -47 23 -55 47 -58 17 -2 27 1 27 10 0 7
-32 109 -71 225 l-71 213 -33 0 -33 0 -71 -213z m169 -69 c0 -5 -29 -8 -65 -8
-50 0 -65 3 -65 14 0 13 39 148 57 196 4 12 72 -176 73 -202z"/>
<path d="M790 523 c0 -114 4 -214 8 -221 6 -9 38 -12 123 -10 111 3 114 4 117
26 4 23 3 23 -92 20 l-96 -3 -2 195 -3 195 -27 3 -28 3 0 -208z"/>
<path d="M1133 517 c-40 -118 -73 -219 -73 -226 0 -8 11 -11 27 -9 24 3 30 11
44 57 l16 54 86 1 87 2 18 -56 c18 -54 35 -69 67 -56 11 4 -2 53 -59 223 l-73
218 -34 3 -34 3 -72 -214z m137 39 c16 -54 30 -102 30 -107 0 -5 -29 -9 -65
-9 -40 0 -65 4 -65 11 0 17 62 211 66 207 2 -3 17 -48 34 -102z"/>
<path d="M1453 724 c-7 -3 12 -43 52 -106 l63 -102 -51 -80 c-82 -131 -86
-139 -81 -148 3 -4 15 -8 27 -8 18 0 34 20 76 90 29 49 57 87 62 85 4 -3 30
-42 56 -86 48 -80 67 -95 102 -84 18 5 14 15 -39 101 -33 52 -64 104 -70 114
-9 17 -1 36 49 117 33 54 57 101 55 105 -3 4 -15 8 -27 8 -17 -1 -34 -20 -71
-82 l-48 -80 -43 68 c-61 98 -70 105 -112 88z"/>
<path d="M1880 505 l0 -225 40 0 40 0 0 74 0 73 58 6 c110 9 156 55 156 154 1
102 -57 143 -201 143 l-93 0 0 -225z m192 135 c22 -27 23 -88 2 -118 -12 -18
-25 -22 -65 -22 l-49 0 0 86 0 87 47 -6 c32 -3 53 -12 65 -27z"/>
<path d="M2261 518 c-39 -117 -71 -219 -71 -226 0 -9 12 -12 37 -10 34 3 38 6
53 52 l16 48 79 0 79 0 16 -48 c15 -44 20 -49 50 -52 18 -2 36 0 40 5 4 4 -25
105 -64 223 l-71 215 -46 3 -47 3 -71 -213z m144 31 c13 -46 25 -87 25 -91 0
-5 -25 -8 -55 -8 -30 0 -55 3 -55 8 0 4 7 30 15 57 9 28 20 67 26 89 6 21 12
36 15 34 2 -3 15 -43 29 -89z"/>
<path d="M2573 722 c-8 -5 6 -47 47 -145 53 -122 59 -145 62 -214 l3 -78 40 0
40 0 6 85 c6 74 14 102 62 214 31 71 54 132 51 137 -3 5 -20 9 -37 9 -34 0
-38 -8 -107 -195 -11 -29 -12 -28 -50 72 -21 56 -41 107 -45 113 -7 12 -54 13
-72 2z"/>
<path d="M3240 605 c0 -19 -5 -35 -10 -35 -6 0 -22 -12 -35 -26 -34 -37 -34
-96 0 -129 13 -14 29 -25 35 -25 6 0 10 -33 10 -85 0 -90 -6 -99 -44 -70 -27
20 -36 19 -36 -6 0 -14 12 -25 40 -37 33 -14 40 -22 40 -44 0 -18 5 -28 15
-28 9 0 15 9 15 25 0 16 6 25 15 25 9 0 15 -9 15 -25 0 -16 6 -25 15 -25 9 0
15 9 15 24 0 17 11 31 35 46 70 43 69 137 -1 181 -33 20 -34 22 -34 89 0 64
10 94 25 70 8 -13 45 -13 45 0 0 6 -16 20 -35 31 -27 16 -35 27 -35 50 0 19
-5 29 -15 29 -10 0 -15 -10 -15 -30 0 -20 -5 -30 -15 -30 -10 0 -15 10 -15 30
0 20 -5 30 -15 30 -10 0 -15 -11 -15 -35z m60 -130 c0 -62 -2 -73 -15 -69 -11
5 -15 22 -15 68 0 35 3 66 7 69 17 18 23 1 23 -68z m-65 -33 c-9 -9 -25 19
-25 44 0 11 6 26 13 33 10 10 13 4 15 -29 2 -23 0 -45 -3 -48z m63 -159 c-2
-44 -7 -78 -13 -78 -6 0 -11 34 -13 78 -2 65 0 77 13 77 13 0 15 -12 13 -77z
m75 14 c7 -21 5 -34 -7 -52 -26 -39 -36 -30 -36 31 0 46 3 55 17 52 9 -2 21
-16 26 -31z"/>
<path d="M3640 372 c0 -62 -21 -133 -54 -183 -30 -45 -33 -62 -9 -57 27 5 81
116 93 190 11 71 6 98 -16 98 -10 0 -14 -14 -14 -48z"/>
<path d="M2930 233 c0 -24 57 -108 98 -144 19 -17 63 -44 96 -60 54 -26 72
-29 156 -29 109 0 140 6 140 27 0 12 -9 13 -52 6 -167 -26 -320 41 -389 171
-24 46 -49 61 -49 29z"/>
<path d="M1440 180 c-9 -6 -10 -10 -3 -10 6 0 15 5 18 10 8 12 4 12 -15 0z"/>
<path d="M742 148 c-20 -20 -14 -35 24 -57 42 -25 40 -47 -5 -45 -17 1 -28 -2
-25 -7 7 -11 45 -11 62 0 19 12 11 43 -13 56 -44 22 -47 26 -34 42 7 8 21 12
31 10 10 -3 16 -1 12 4 -8 13 -38 11 -52 -3z"/>
<path d="M830 95 l0 -65 38 1 c36 1 36 2 7 8 -42 9 -48 48 -8 54 l28 4 -28 2
c-23 1 -28 5 -25 23 2 16 12 25 33 29 29 6 29 7 -7 8 l-38 1 0 -65z"/>
<path d="M932 103 c-2 -54 1 -62 18 -68 11 -3 29 -3 40 0 17 6 20 14 18 68
l-1 62 -6 -60 c-6 -56 -8 -60 -31 -60 -23 0 -25 4 -31 60 l-6 60 -1 -62z"/>
<path d="M1081 95 l2 -70 7 60 c4 33 3 64 -2 70 -4 5 -7 -22 -7 -60z"/>
<path d="M1150 108 l-1 -53 -20 38 c-11 22 -23 37 -25 34 -7 -6 32 -83 46 -92
6 -4 10 18 10 59 0 36 -2 66 -5 66 -3 0 -5 -24 -5 -52z"/>
<path d="M1194 146 c-3 -7 -4 -35 -2 -62 3 -48 3 -49 38 -50 26 -1 28 -1 8 3
-21 3 -28 10 -28 28 0 18 6 25 28 28 l27 4 -27 2 c-23 1 -28 6 -28 25 0 19 6
26 28 29 25 4 24 4 -6 6 -20 0 -35 -4 -38 -13z"/>
<path d="M1300 140 c-40 -40 -14 -110 41 -110 26 0 29 3 29 30 0 22 -5 30 -17
29 -11 0 -13 -3 -5 -6 17 -7 15 -43 -2 -43 -34 0 -46 13 -46 50 0 44 19 64 52
55 18 -5 20 -4 8 4 -22 16 -38 13 -60 -9z"/>
<path d="M1406 138 c-21 -30 -20 -61 2 -88 28 -35 69 -21 78 25 12 67 -46 112
-80 63z m50 4 c36 -23 20 -106 -19 -100 -18 2 -23 10 -25 41 -4 50 16 78 44
59z"/>
<path d="M1526 147 c-21 -15 -25 -80 -6 -102 14 -17 39 -19 60 -5 11 8 9 9
-11 5 -33 -8 -51 14 -47 56 4 42 34 62 54 35 11 -16 14 -17 14 -4 0 14 -19 28
-39 28 -4 0 -15 -6 -25 -13z"/>
<path d="M1623 95 c0 -38 2 -53 4 -32 2 20 2 52 0 70 -2 17 -4 1 -4 -38z"/>
<path d="M1678 150 c-42 -25 -25 -120 22 -120 45 0 66 63 34 108 -16 24 -30
27 -56 12z m46 -16 c32 -31 9 -100 -30 -93 -34 7 -29 109 7 109 4 0 15 -7 23
-16z"/>
<path d="M1811 93 c1 -38 4 -56 6 -40 6 36 40 38 49 2 3 -14 10 -25 15 -25 6
0 5 9 -1 20 -6 12 -8 36 -4 56 7 40 -4 54 -43 54 -22 0 -23 -4 -22 -67z m43
51 c27 -10 20 -44 -9 -44 -20 0 -25 5 -25 25 0 26 7 29 34 19z"/>
<path d="M1910 95 l0 -65 38 2 c36 1 36 1 5 5 -27 4 -33 9 -33 28 0 18 6 25
28 28 l27 4 -27 2 c-23 1 -28 6 -28 25 0 20 6 25 33 29 31 4 31 4 -5 5 l-38 2
0 -65z"/>
<path d="M2016 144 c-19 -18 -21 -85 -4 -102 15 -15 55 -16 64 -1 4 8 -1 9
-15 4 -28 -9 -51 10 -51 42 0 53 38 83 59 46 5 -10 12 -15 16 -12 8 9 -23 39
-40 39 -7 0 -21 -7 -29 -16z"/>
<path d="M2114 135 c-24 -37 -12 -93 23 -101 50 -13 81 56 47 104 -20 29 -50
28 -70 -3z m55 1 c7 -8 11 -32 9 -53 -2 -31 -7 -39 -25 -41 -39 -6 -55 77 -19
100 16 11 22 10 35 -6z"/>
<path d="M2221 93 c1 -38 4 -56 6 -40 6 36 40 37 54 1 5 -15 12 -24 15 -21 3
3 1 15 -6 26 -7 15 -8 27 0 40 13 25 13 27 -6 45 -8 9 -26 16 -40 16 -23 0
-24 -2 -23 -67z m57 29 c3 -18 -1 -22 -22 -22 -19 0 -26 5 -26 18 0 39 43 43
48 4z"/>
<path d="M2327 153 c-11 -10 -8 -123 3 -123 6 0 10 11 10 25 0 34 25 32 44 -2
17 -32 21 -26 6 11 -6 16 -6 27 0 31 17 10 11 44 -9 55 -23 12 -45 13 -54 3z
m53 -18 c15 -18 5 -35 -21 -35 -14 0 -19 7 -19 25 0 28 21 33 40 10z"/>
<path d="M2424 146 c-3 -7 -4 -35 -2 -62 l3 -49 40 -1 c32 -1 34 -1 8 3 -27 3
-33 9 -33 28 0 18 6 25 28 28 l27 4 -27 2 c-23 1 -28 6 -28 25 0 19 6 26 28
29 25 4 24 4 -6 6 -20 0 -35 -4 -38 -13z"/>
<path d="M2522 93 l1 -68 6 55 6 55 28 -52 c15 -29 32 -53 37 -53 6 0 10 27
10 60 0 33 -4 60 -10 60 -5 0 -10 -19 -10 -42 l0 -43 -30 48 c-17 26 -32 47
-35 47 -3 0 -4 -30 -3 -67z"/>
<path d="M2635 151 c16 -6 21 -20 26 -67 l6 -59 1 62 c2 49 5 62 20 66 9 3 -3
5 -28 5 -31 0 -39 -2 -25 -7z"/>
<path d="M2720 95 l0 -65 38 2 c36 1 36 1 5 5 -27 4 -33 9 -33 28 0 18 6 25
28 28 l27 4 -27 2 c-23 1 -28 6 -28 25 0 20 6 25 33 29 31 4 31 4 -5 5 l-38 2
0 -65z"/>
<path d="M3468 79 c-10 -5 -18 -17 -18 -24 0 -19 29 -19 53 -1 36 28 6 49 -35
25z"/>
</g>
</svg>
